<?xml version="1.0" encoding="UTF-8"?>
<svg width="88px" height="102px" viewBox="0 0 88 102" version="1.1" xmlns="http://www.w3.org/2000/svg" xmlns:xlink="http://www.w3.org/1999/xlink">
    <!-- Generator: Sketch 51.3 (57544) - http://www.bohemiancoding.com/sketch -->
    <title>illustration-robot-2</title>
    <desc>Created with Sketch.</desc>
    <defs></defs>
    <g id="Page-1" stroke="none" stroke-width="1" fill="none" fill-rule="evenodd">
        <g id="Artboard" transform="translate(-1482.000000, -157.000000)">
            <g id="Group-53" transform="translate(80.000000, 75.000000)">
                <g id="illustration-robot-2" transform="translate(1402.000000, 81.890000)">
                    <path d="M53.3523,57.9711 C53.3523,60.8501 55.6863,63.1841 58.5653,63.1841 C59.1103,63.1841 59.6343,63.0991 60.1283,62.9451 C62.2433,62.2801 63.7773,60.3051 63.7773,57.9711 C63.7773,55.6371 62.2433,53.6621 60.1283,52.9981 C59.6343,52.8431 59.1103,52.7581 58.5653,52.7581 C55.6863,52.7581 53.3523,55.0921 53.3523,57.9711 M24.6823,57.9711 C24.6823,60.4931 26.4723,62.5961 28.8523,63.0791 C29.1893,63.1471 29.5383,63.1841 29.8943,63.1841 C32.7733,63.1841 35.1073,60.8501 35.1073,57.9711 C35.1073,55.0921 32.7733,52.7581 29.8943,52.7581 C29.5383,52.7581 29.1893,52.7951 28.8523,52.8631 C26.4723,53.3461 24.6823,55.4491 24.6823,57.9711 M44.2293,20.2691 C21.3783,20.2691 2.7893,37.9621 2.7893,59.7101 C2.7893,81.4581 21.3783,99.1521 44.2293,99.1521 C53.3523,99.1521 62.0043,96.3861 69.2513,91.1531 L69.8463,90.7231 L76.7813,95.4801 L76.8193,84.0791 L77.0513,83.7931 C82.6903,76.8421 85.6703,68.5141 85.6703,59.7101 C85.6703,37.9621 67.0813,20.2691 44.2293,20.2691 M44.2293,101.2371 C20.2293,101.2371 0.7033,82.6081 0.7033,59.7101 C0.7033,37.1451 19.6663,18.7261 43.1873,18.1961 L43.1873,14.7051 L45.5383,14.7051 L45.5383,18.2021 C68.9353,18.8651 87.7553,37.2301 87.7553,59.7101 C87.7553,68.8771 84.6963,77.5511 78.9023,84.8191 L78.8533,99.4291 L69.8733,93.2691 C62.3923,98.4841 53.5423,101.2371 44.2293,101.2371" id="Fill-52" fill="#000000"></path>
                    <path d="M38.2351,6.3651 C38.2351,2.9101 41.0361,0.1101 44.4901,0.1101 C47.9451,0.1101 50.7461,2.9101 50.7461,6.3651 C50.7461,9.8201 47.9451,12.6201 44.4901,12.6201 C41.0361,12.6201 38.2351,9.8201 38.2351,6.3651 M60.1291,62.9451 C59.6341,63.0991 59.1101,63.1841 58.5651,63.1841 C55.6861,63.1841 53.3521,60.8501 53.3521,57.9711 C53.3521,55.0921 55.6861,52.7581 58.5651,52.7581 C59.1101,52.7581 59.6341,52.8431 60.1291,52.9981 C62.2431,53.6621 63.7771,55.6371 63.7771,57.9711 C63.7771,60.3051 62.2431,62.2801 60.1291,62.9451 M29.8941,63.1841 C29.5381,63.1841 29.1891,63.1471 28.8521,63.0791 C26.4721,62.5961 24.6821,60.4931 24.6821,57.9711 C24.6821,55.4491 26.4721,53.3461 28.8521,52.8631 C29.1891,52.7951 29.5381,52.7581 29.8941,52.7581 C32.7731,52.7581 35.1071,55.0921 35.1071,57.9711 C35.1071,60.8501 32.7731,63.1841 29.8941,63.1841 M60.1291,42.0151 C59.2791,41.8821 58.4091,41.8121 57.5221,41.8121 L44.4901,41.8121 L29.8941,41.8121 C29.5441,41.8121 29.1971,41.8261 28.8521,41.8471 L28.8521,41.8121 L28.8521,41.7991 C22.3901,42.2151 16.9311,46.3011 14.5281,51.9921 C14.5261,51.9961 14.5251,51.9991 14.5231,52.0031 C14.4241,52.2371 14.3321,52.4721 14.2441,52.7111 C14.2361,52.7331 14.2271,52.7551 14.2191,52.7771 C14.1391,52.9971 14.0641,53.2201 13.9931,53.4461 C13.9811,53.4851 13.9671,53.5231 13.9551,53.5621 C13.8901,53.7721 13.8321,53.9841 13.7751,54.1961 C13.7601,54.2511 13.7451,54.3041 13.7311,54.3591 C13.6791,54.5601 13.6341,54.7621 13.5901,54.9651 C13.5771,55.0321 13.5601,55.0991 13.5471,55.1671 C13.5071,55.3601 13.4741,55.5551 13.4421,55.7501 C13.4291,55.8281 13.4141,55.9061 13.4021,55.9851 C13.3731,56.1761 13.3511,56.3681 13.3291,56.5601 C13.3191,56.6441 13.3061,56.7271 13.2981,56.8121 C13.2781,57.0111 13.2651,57.2111 13.2531,57.4111 C13.2481,57.4901 13.2391,57.5691 13.2351,57.6481 C13.2211,57.9281 13.2141,58.2091 13.2141,58.4921 C13.2141,58.7761 13.2211,59.0571 13.2351,59.3371 C13.2391,59.4161 13.2481,59.4941 13.2531,59.5731 C13.2651,59.7741 13.2781,59.9741 13.2981,60.1731 C13.3061,60.2571 13.3191,60.3401 13.3291,60.4241 C13.3511,60.6161 13.3731,60.8091 13.4021,61.0001 C13.4141,61.0781 13.4291,61.1561 13.4421,61.2341 C13.4741,61.4301 13.5071,61.6251 13.5471,61.8181 C13.5601,61.8861 13.5771,61.9521 13.5901,62.0191 C13.6341,62.2221 13.6791,62.4251 13.7311,62.6251 C13.7451,62.6801 13.7601,62.7341 13.7751,62.7881 C13.8321,63.0011 13.8901,63.2131 13.9551,63.4221 C13.9671,63.4611 13.9811,63.5001 13.9931,63.5391 C14.0641,63.7641 14.1391,63.9871 14.2191,64.2081 C14.2271,64.2301 14.2361,64.2521 14.2441,64.2741 C14.3321,64.5121 14.4241,64.7481 14.5231,64.9811 C14.5251,64.9851 14.5261,64.9891 14.5281,64.9921 C16.9311,70.6841 22.3901,74.7701 28.8521,75.1861 L28.8521,75.1731 L28.8521,75.1371 C29.1971,75.1581 29.5441,75.1731 29.8941,75.1731 L44.4901,75.1731 L57.5221,75.1731 C58.4091,75.1731 59.2791,75.1021 60.1291,74.9691 C68.1031,73.7181 74.2031,66.8181 74.2031,58.4921 C74.2031,50.1671 68.1031,43.2671 60.1291,42.0151" id="Fill-54" fill="#008FD3"></path>
                    <path d="M28.8522,63.079 C26.4722,62.596 24.6822,60.493 24.6822,57.971 C24.6822,55.449 26.4722,53.346 28.8522,52.863 L28.8522,41.848 L28.8522,41.812 L28.8522,41.799 C22.3902,42.215 16.9312,46.301 14.5282,51.993 C14.5262,51.996 14.5252,51.999 14.5232,52.003 C14.4242,52.237 14.3312,52.473 14.2442,52.711 C14.2362,52.733 14.2272,52.755 14.2192,52.777 C14.1392,52.997 14.0642,53.221 13.9932,53.446 C13.9812,53.485 13.9672,53.523 13.9552,53.562 C13.8902,53.772 13.8312,53.984 13.7752,54.196 C13.7602,54.251 13.7452,54.305 13.7312,54.359 C13.6792,54.56 13.6342,54.762 13.5902,54.965 C13.5772,55.033 13.5602,55.099 13.5462,55.167 C13.5072,55.36 13.4742,55.555 13.4422,55.75 C13.4292,55.829 13.4142,55.906 13.4022,55.985 C13.3732,56.176 13.3512,56.368 13.3292,56.56 C13.3192,56.644 13.3062,56.727 13.2982,56.812 C13.2782,57.011 13.2652,57.211 13.2522,57.412 C13.2482,57.491 13.2392,57.569 13.2352,57.648 C13.2212,57.928 13.2132,58.209 13.2132,58.493 C13.2132,58.776 13.2212,59.057 13.2352,59.337 C13.2392,59.416 13.2482,59.494 13.2522,59.573 C13.2652,59.774 13.2782,59.975 13.2982,60.173 C13.3062,60.257 13.3192,60.34 13.3292,60.424 C13.3512,60.617 13.3732,60.809 13.4022,61 C13.4142,61.079 13.4292,61.156 13.4422,61.234 C13.4742,61.43 13.5072,61.625 13.5462,61.818 C13.5602,61.886 13.5772,61.952 13.5902,62.019 C13.6342,62.223 13.6792,62.425 13.7312,62.625 C13.7452,62.68 13.7602,62.734 13.7752,62.788 C13.8312,63.001 13.8902,63.213 13.9552,63.422 C13.9672,63.461 13.9812,63.5 13.9932,63.539 C14.0642,63.764 14.1392,63.987 14.2192,64.208 C14.2272,64.23 14.2362,64.252 14.2442,64.274 C14.3312,64.512 14.4242,64.748 14.5232,64.981 C14.5252,64.985 14.5262,64.989 14.5282,64.993 C16.9312,70.684 22.3902,74.77 28.8522,75.186 L28.8522,75.173 L28.8522,75.138 L28.8522,63.079 Z" id="Fill-56" fill="#F0AB00"></path>
                    <path d="M29.8942,41.8119 C29.5432,41.8119 29.1972,41.8259 28.8522,41.8479 L28.8522,52.8629 C29.1892,52.7949 29.5382,52.7579 29.8942,52.7579 C32.7732,52.7579 35.1072,55.0919 35.1072,57.9709 C35.1072,60.8499 32.7732,63.1839 29.8942,63.1839 C29.5382,63.1839 29.1892,63.1469 28.8522,63.0789 L28.8522,75.1379 C29.1972,75.1589 29.5432,75.1729 29.8942,75.1729 L44.4902,75.1729 L44.4902,41.8119 L29.8942,41.8119 Z" id="Fill-58" fill-opacity="0.7" fill="#F0AB00"></path>
                    <path d="M58.5652,63.184 C55.6862,63.184 53.3522,60.85 53.3522,57.971 C53.3522,55.092 55.6862,52.758 58.5652,52.758 C59.1102,52.758 59.6342,52.843 60.1282,52.998 L60.1282,42.016 C59.2792,41.882 58.4092,41.812 57.5222,41.812 L44.4902,41.812 L44.4902,75.173 L57.5222,75.173 C58.4092,75.173 59.2792,75.102 60.1282,74.969 L60.1282,62.945 C59.6342,63.1 59.1102,63.184 58.5652,63.184" id="Fill-60" fill-opacity="0.4" fill="#F0AB00"></path>
                </g>
            </g>
        </g>
    </g>
</svg>